<?xml version="1.0" standalone="no"?><svg xmlns="http://www.w3.org/2000/svg" viewBox="0 0 1440 320"><path fill="#000000" fill-opacity="0.3" d="M0,64L24,69.3C48,75,96,85,144,106.7C192,128,240,160,288,149.3C336,139,384,85,432,53.3C480,21,528,11,576,58.7C624,107,672,213,720,224C768,235,816,149,864,133.3C912,117,960,171,1008,160C1056,149,1104,75,1152,64C1200,53,1248,107,1296,149.3C1344,192,1392,224,1416,240L1440,256L1440,320L1416,320C1392,320,1344,320,1296,320C1248,320,1200,320,1152,320C1104,320,1056,320,1008,320C960,320,912,320,864,320C816,320,768,320,720,320C672,320,624,320,576,320C528,320,480,320,432,320C384,320,336,320,288,320C240,320,192,320,144,320C96,320,48,320,24,320L0,320Z"></path></svg>